<?xml version="1.0" encoding="UTF-8" standalone="no"?>
<svg width="512px" height="512px" viewBox="0 0 512 512" version="1.1" xmlns="http://www.w3.org/2000/svg" xmlns:xlink="http://www.w3.org/1999/xlink" style="background: #4FC3F7;">
    <!-- Generator: Sketch 47 (45396) - http://www.bohemiancoding.com/sketch -->
    <title>Artboard Copy</title>
    <desc>Created with Sketch.</desc>
    <defs></defs>
    <g id="Page-1" stroke="none" stroke-width="1" fill="none" fill-rule="evenodd">
        <g id="Artboard-Copy" fill="#DFDF1F">
            <g id="1-copy" transform="translate(43.154286, 142.628571)">
                <polygon id="Path{:easeInOutCubic;0,804.47,26.83,90,10,390,1;20,777,290,90,10,360,1;40,777,290,90,10,360,1;60,804.47,26.83,90,10,390,1;}" points="322.563148 0 298.784797 0 262.582857 8.04571429 337.92 8.04571429"></polygon>
                <polygon id="Path{:easeInOutCubic;0,548.21,94.59,103,46,370,1;20,672,301,103,46,360,1;40,672,301,103,46,360,1;60,548.21,94.59,103,46,370,1;}" points="262.582857 16.3851864 262.582857 8.77714286 176.274286 46.8114286"></polygon>
                <polygon id="Path{:easeInOutCubic;0,1054.01,193.43,42,25,380,1;20,835,304,42,25,360,1;40,835,304,42,25,360,1;60,1054.01,193.43,42,25,380,1;}" points="310.125714 16.8470977 344.502857 31.4514286 338.56124 10.9714286"></polygon>
                <polygon id="Path{:easeInOutCubic;0,830.11,214.64,73,24,390,1;20,778,304,73,24,360,1;40,778,304,73,24,360,1;60,830.11,214.64,73,24,390,1;}" points="263.314286 11.6793792 263.314286 31.4514286 324.022857 10.9714286"></polygon>
                <polygon id="Path{:easeInOutCubic;0,871.22,275.88,73,20,380,1;20,799,312,73,20,360,1;40,799,312,73,20,360,1;60,871.22,275.88,73,20,380,1;}" points="309.754042 19.0171429 281.6 30.5082382 334.977451 36.5714286 342.308571 34.3364089"></polygon>
                <polygon id="Path{:easeInOutCubic;0,542.87,216.77,171,82,340,1;20,603,314,171,82,360,1;40,603,314,171,82,360,1;60,542.87,216.77,171,82,340,1;}" points="261.12 20.48 174.334707 52.153898 119.222857 89.2342857 179.629086 56.2923475"></polygon>
                <polygon id="Path{:easeInOutCubic;0,663.3,255.15,90,41,380,1;20,683,317,90,41,360,1;40,683,317,90,41,360,1;60,663.3,255.15,90,41,380,1;}" points="261.12 22.6742857 185.782857 56.32 219.819043 52.495329"></polygon>
                <polygon id="Path{:easeInOutCubic;0,704.83,314.04,25,18,330,1;20,748,319,25,18,360,1;40,748,319,25,18,360,1;60,704.83,314.04,25,18,330,1;}" points="259.277042 31.4317881 259.657143 24.1371429 238.445714 39.4971429"></polygon>
                <polygon id="Path{:easeInOutCubic;0,773.03,304.04,56,51,380,1;20,796,326,56,51,360,1;40,796,326,56,51,360,1;60,773.03,304.04,56,51,380,1;}" points="323.137951 57.5705795 277.942857 29.2571429 280.963336 58.5558513 324.022857 72.4114286"></polygon>
                <polygon id="Path{:easeInOutCubic;0,735.74,365.45,31,33,375,1;20,764,327,31,33,360,1;40,764,327,31,33,360,1;60,735.74,365.45,31,33,375,1;}" points="275.351028 30.72 253.194675 37.777119 252.342857 47.0021311 277.942857 58.5142857"></polygon>
                <polygon id="Path{:easeInOutCubic;0,872.9,334.56,50,29,330,1;20,808,328,50,29,360,1;40,808,328,50,29,360,1;60,872.9,334.56,50,29,330,1;}" points="288.182857 31.4514286 305.657391 43.9656182 323.702003 55.5885714 329.142857 47.2447539"></polygon>
                <polygon id="Path{:easeInOutCubic;0,841.25,308.11,54,17,339,1;20,812,329,54,17,360,1;40,812,329,54,17,360,1;60,841.25,308.11,54,17,339,1;}" points="291.84 32.1828571 328.181744 46.8114286 336.457143 37.9014789"></polygon>
                <polygon id="Path{:easeInOutCubic;0,1435.12,349.92,28,22,430,1;20,860,330,28,22,360,1;40,860,330,28,22,360,1;60,1435.12,349.92,28,22,430,1;}" points="342.816751 32.9142857 331.337143 44.5591441 354.742857 51.9314286"></polygon>
                <polygon id="Path{:easeInOutCubic;0,678.62,391.44,35,24,320,1;20,728,337,35,24,360,1;40,728,337,35,24,360,1;60,678.62,391.44,35,24,320,1;}" points="238.138777 43.7065359 222.354286 54.5251868 251.228134 60.7085714 251.611429 40.2285714"></polygon>
                <polygon id="Path{:easeInOutCubic;0,793.52,412.33,10,11,521,1;20,764,349,10,11,360,1;40,764,349,10,11,360,1;60,793.52,412.33,10,11,521,1;}" points="252.342857 58.5142857 260.388571 53.0289252 252.342857 49.7371429"></polygon>
                <polygon id="Path{:easeInOutCubic;0,830.17,397.22,141,96,380,1;20,764,354,141,96,360,1;40,764,354,141,96,360,1;60,830.17,397.22,141,96,380,1;}" points="262.336693 52.6628571 252.342857 59.5752651 370.102857 131.657143 301.614094 68.8432317"></polygon>
                <polygon id="Path{:easeInOutCubic;0,625.57,502,51,24,380,1;20,689,357,51,24,360,1;40,689,357,51,24,360,1;60,625.57,502,51,24,380,1;}" points="190.171429 56.2353434 231.862857 75.3371429 224.716432 54.8571429"></polygon>
                <polygon id="Path{:easeInOutCubic;0,751.64,517.52,24,37,330,1;20,736,359,24,37,360,1;40,736,359,24,37,360,1;60,751.64,517.52,24,37,330,1;}" points="249.417143 61.5057401 228.937143 57.0514286 240.106931 87.7714286"></polygon>
                <polygon id="Path{:easeInOutCubic;0,605.41,673.9,139,62,380,1;20,601,360,139,62,360,1;40,601,360,139,62,360,1;60,605.41,673.9,139,62,380,1;}" points="169.297286 81.0122022 234.057143 81.0122022 184.276638 57.7828571 132.850846 84.1412274 117.76 109.714286"></polygon>
                <polygon id="Path{:easeInOutCubic;0,766.66,658.84,50,178,355,1;20,753,368,50,178,360,1;40,753,368,50,178,360,1;60,766.66,658.84,50,178,355,1;}" points="248.854964 64.3657143 242.102857 90.7334668 283.062857 212.114286"></polygon>
                <polygon id="Path{:easeInOutCubic;0,930.56,606.61,109,233,340,1;20,767,370,109,233,360,1;40,767,370,109,233,360,1;60,930.56,606.61,109,233,340,1;}" points="254.537143 67.2914286 283.10497 182.439793 345.234286 259.657143 264.966142 74.9685846"></polygon>
                <polygon id="Path{:easeInOutCubic;0,1404.52,418.25,56,52,300,1;20,827,373,56,52,360,1;40,827,373,56,52,360,1;60,1404.52,418.25,56,52,300,1;}" points="324.285323 73.6028229 304.274286 68.7542857 350.354286 112.64"></polygon>
                <polygon id="Path{:easeInOutCubic;0,412.72,364.74,72,52,340,1;20,560,375,72,52,360,1;40,560,375,72,52,360,1;60,412.72,364.74,72,52,340,1;}" points="116.975892 89.8741324 143.36 70.9485714 93.6629349 101.829862 84.1142857 114.515384 86.5754334 114.834286"></polygon>
                <polygon id="Path{:easeInOutCubic;0,277.14,167.65,80,50,390,1;20,478,375,80,50,360,1;40,478,375,80,50,360,1;60,277.14,167.65,80,50,390,1;}" points="52.5710591 89.5402003 14.6285714 70.9485714 41.814461 96.5047325 80.1962984 113.371429 81.1885714 104.108014"></polygon>
                <polygon id="Path{:easeInOutCubic;0,1164.27,654.05,149,197,330,1;20,783,379,149,197,360,1;40,783,379,149,197,360,1;60,1164.27,654.05,149,197,330,1;}" points="322.464823 145.118328 277.156082 80.141423 267.702857 74.6057143 308.569507 165.80659 390.582857 237.714286"></polygon>
                <polygon id="Path{:easeInOutCubic;0,1076.01,554.37,163,170,325,1;20,799,386,163,170,360,1;40,799,386,163,170,360,1;60,1076.01,554.37,163,170,325,1;}" points="281.6 78.9942857 344.995134 160.512144 416.914286 219.428571 297.171574 88.9976114"></polygon>
                <polygon id="Path{:easeInOutCubic;0,25.08,218.54,85,33,380,1;20,463,390,85,33,360,1;40,463,390,85,33,360,1;60,25.08,218.54,85,33,380,1;}" points="2.19428571 84.1142857 24.6212492 97.8488267 71.68 111.908571"></polygon>
                <polygon id="Path{:easeInOutCubic;0,434.12,576.1,58,43,290,1;20,557,391,58,43,360,1;40,557,391,58,43,360,1;60,434.12,576.1,58,43,290,1;}" points="128 84.8457143 118.384682 89.8641905 79.7257143 119.954286 113.912511 109.033465"></polygon>
                <polygon id="Path{:easeInOutCubic;0,417.63,323.39,42,34,350,1;20,558,392,42,34,360,1;40,558,392,42,34,360,1;60,417.63,323.39,42,34,350,1;}" points="114.834286 84.8457143 82.9478575 92.9717517 80.4571429 113.371429 89.5838958 100.12206"></polygon>
                <polygon id="Path{:easeInOutCubic;0,360.47,114.89,35,20,370,1;20,523,392,35,20,360,1;40,523,392,35,20,360,1;60,360.47,114.89,35,20,370,1;}" points="52.6628571 84.8457143 81.2844892 102.4 81.92 92.609265"></polygon>
                <polygon id="Path{:easeInOutCubic;0,95.76,360.62,72,23,380,1;20,460,400,72,23,360,1;40,460,400,72,23,360,1;60,95.76,360.62,72,23,380,1;}" points="0 92.16 51.4758832 111.908571 59.2457143 109.186377"></polygon>
                <polygon id="Path{:easeInOutCubic;0,1274.59,627.91,149,135,370,1;20,823,403,149,135,360,1;40,823,403,149,135,360,1;60,1274.59,627.91,149,135,370,1;}" points="324.798342 110.759416 301.348571 94.3542857 381.495309 176.283862 424.228571 206.262857"></polygon>
                <polygon id="Path{:easeInOutCubic;0,18.4,354.76,50,11,390,1;20,470,415,50,11,360,1;40,470,415,50,11,360,1;60,18.4,354.76,50,11,390,1;}" points="49.0057143 110.815835 33.7276796 105.443213 8.04571429 103.862857 42.8926874 112.64"></polygon>
                <polygon id="Path{:easeInOutCubic;0,4,445,83,21,360,1;20,480,421,83,21,360,1;40,480,421,83,21,360,1;60,4,445,83,21,360,1;}" points="85.5771429 115.914137 61.9411516 109.714286 17.5542857 126.596957 67.2631825 128"></polygon>
                <polygon id="Path{:easeInOutCubic;0,443.91,810.52,68,51,350,1;20,538,421,68,51,360,1;40,538,421,68,51,360,1;60,443.91,810.52,68,51,350,1;}" points="108.021895 114.189388 65.0971429 152.868571 122.148571 109.714286"></polygon>
                <polygon id="Path{:easeInOutCubic;0,1216.42,522.35,115,84,350,1;20,859,427,115,84,360,1;40,859,427,115,84,360,1;60,1216.42,522.35,115,84,350,1;}" points="331.337143 114.102857 364.700289 144.713555 426.422857 183.588571 369.707001 138.187356"></polygon>
                <polygon id="Path{:easeInOutCubic;0,183.22,736.38,100,80,335,1;20,486,427,100,80,360,1;40,486,427,100,80,360,1;60,183.22,736.38,100,80,335,1;}" points="106.788571 114.102857 82.3838015 122.221622 22.6742857 181.394286 65.255697 149.334718"></polygon>
                <polygon id="Path{:easeInOutCubic;0,93.3,639.11,78,74,340,1;20,477,436,78,74,360,1;40,477,436,78,74,360,1;60,93.3,639.11,78,74,340,1;}" points="37.1218028 148.149027 13.8971429 182.857143 78.9942857 121.417143"></polygon>
                <polygon id="Path{:easeInOutCubic;0,6.32,530.66,40,20,330,1;20,482,444,40,20,360,1;40,482,444,40,20,360,1;60,6.32,530.66,40,20,330,1;}" points="41.0639202 138.669485 51.9314286 128.342284 45.7226843 128 19.0171429 145.554286"></polygon>
                <polygon id="Path{:easeInOutCubic;0,67.33,549.35,55,35,340,1;20,482,444,55,35,360,1;40,482,444,55,35,360,1;60,67.33,549.35,55,35,340,1;}" points="64.3657143 128 54.7370491 128 19.0171429 156.525714"></polygon>
            </g>
        </g>
    </g>
</svg>