<?xml version="1.0" encoding="UTF-8" standalone="no"?>
<svg width="1024px" height="1024px" viewBox="0 0 1024 1024" version="1.1" xmlns="http://www.w3.org/2000/svg" xmlns:xlink="http://www.w3.org/1999/xlink" style="background: #4FC3F7;">
    <!-- Generator: Sketch 47 (45396) - http://www.bohemiancoding.com/sketch -->
    <title>Artboard Copy</title>
    <desc>Created with Sketch.</desc>
    <defs></defs>
    <g id="Page-1" stroke="none" stroke-width="1" fill="none" fill-rule="evenodd">
        <g id="Artboard-Copy" fill="#DFDF1F">
            <g id="1-copy" transform="translate(86.308571, 285.257143)">
                <polygon id="Path{:easeInOutCubic;0,804.47,26.83,90,10,390,1;20,777,290,90,10,360,1;40,777,290,90,10,360,1;60,804.47,26.83,90,10,390,1;}" points="645.126296 0 597.569593 0 525.165714 16.0914286 675.84 16.0914286"></polygon>
                <polygon id="Path{:easeInOutCubic;0,548.21,94.59,103,46,370,1;20,672,301,103,46,360,1;40,672,301,103,46,360,1;60,548.21,94.59,103,46,370,1;}" points="525.165714 32.7703729 525.165714 17.5542857 352.548571 93.6228571"></polygon>
                <polygon id="Path{:easeInOutCubic;0,1054.01,193.43,42,25,380,1;20,835,304,42,25,360,1;40,835,304,42,25,360,1;60,1054.01,193.43,42,25,380,1;}" points="620.251429 33.6941954 689.005714 62.9028571 677.12248 21.9428571"></polygon>
                <polygon id="Path{:easeInOutCubic;0,830.11,214.64,73,24,390,1;20,778,304,73,24,360,1;40,778,304,73,24,360,1;60,830.11,214.64,73,24,390,1;}" points="526.628571 23.3587584 526.628571 62.9028571 648.045714 21.9428571"></polygon>
                <polygon id="Path{:easeInOutCubic;0,871.22,275.88,73,20,380,1;20,799,312,73,20,360,1;40,799,312,73,20,360,1;60,871.22,275.88,73,20,380,1;}" points="619.508085 38.0342857 563.2 61.0164764 669.954902 73.1428571 684.617143 68.6728178"></polygon>
                <polygon id="Path{:easeInOutCubic;0,542.87,216.77,171,82,340,1;20,603,314,171,82,360,1;40,603,314,171,82,360,1;60,542.87,216.77,171,82,340,1;}" points="522.24 40.96 348.669414 104.307796 238.445714 178.468571 359.258172 112.584695"></polygon>
                <polygon id="Path{:easeInOutCubic;0,663.3,255.15,90,41,380,1;20,683,317,90,41,360,1;40,683,317,90,41,360,1;60,663.3,255.15,90,41,380,1;}" points="522.24 45.3485714 371.565714 112.64 439.638086 104.990658"></polygon>
                <polygon id="Path{:easeInOutCubic;0,704.83,314.04,25,18,330,1;20,748,319,25,18,360,1;40,748,319,25,18,360,1;60,704.83,314.04,25,18,330,1;}" points="518.554083 62.8635762 519.314286 48.2742857 476.891429 78.9942857"></polygon>
                <polygon id="Path{:easeInOutCubic;0,773.03,304.04,56,51,380,1;20,796,326,56,51,360,1;40,796,326,56,51,360,1;60,773.03,304.04,56,51,380,1;}" points="646.275902 115.141159 555.885714 58.5142857 561.926672 117.111703 648.045714 144.822857"></polygon>
                <polygon id="Path{:easeInOutCubic;0,735.74,365.45,31,33,375,1;20,764,327,31,33,360,1;40,764,327,31,33,360,1;60,735.74,365.45,31,33,375,1;}" points="550.702055 61.44 506.38935 75.5542379 504.685714 94.0042621 555.885714 117.028571"></polygon>
                <polygon id="Path{:easeInOutCubic;0,872.9,334.56,50,29,330,1;20,808,328,50,29,360,1;40,808,328,50,29,360,1;60,872.9,334.56,50,29,330,1;}" points="576.365714 62.9028571 611.314782 87.9312365 647.404007 111.177143 658.285714 94.4895078"></polygon>
                <polygon id="Path{:easeInOutCubic;0,841.25,308.11,54,17,339,1;20,812,329,54,17,360,1;40,812,329,54,17,360,1;60,841.25,308.11,54,17,339,1;}" points="583.68 64.3657143 656.363489 93.6228571 672.914286 75.8029578"></polygon>
                <polygon id="Path{:easeInOutCubic;0,1435.12,349.92,28,22,430,1;20,860,330,28,22,360,1;40,860,330,28,22,360,1;60,1435.12,349.92,28,22,430,1;}" points="685.633502 65.8285714 662.674286 89.1182882 709.485714 103.862857"></polygon>
                <polygon id="Path{:easeInOutCubic;0,678.62,391.44,35,24,320,1;20,728,337,35,24,360,1;40,728,337,35,24,360,1;60,678.62,391.44,35,24,320,1;}" points="476.277554 87.4130719 444.708571 109.050374 502.456268 121.417143 503.222857 80.4571429"></polygon>
                <polygon id="Path{:easeInOutCubic;0,793.52,412.33,10,11,521,1;20,764,349,10,11,360,1;40,764,349,10,11,360,1;60,793.52,412.33,10,11,521,1;}" points="504.685714 117.028571 520.777143 106.05785 504.685714 99.4742857"></polygon>
                <polygon id="Path{:easeInOutCubic;0,830.17,397.22,141,96,380,1;20,764,354,141,96,360,1;40,764,354,141,96,360,1;60,830.17,397.22,141,96,380,1;}" points="524.673386 105.325714 504.685714 119.15053 740.205714 263.314286 603.228187 137.686463"></polygon>
                <polygon id="Path{:easeInOutCubic;0,625.57,502,51,24,380,1;20,689,357,51,24,360,1;40,689,357,51,24,360,1;60,625.57,502,51,24,380,1;}" points="380.342857 112.470687 463.725714 150.674286 449.432864 109.714286"></polygon>
                <polygon id="Path{:easeInOutCubic;0,751.64,517.52,24,37,330,1;20,736,359,24,37,360,1;40,736,359,24,37,360,1;60,751.64,517.52,24,37,330,1;}" points="498.834286 123.01148 457.874286 114.102857 480.213861 175.542857"></polygon>
                <polygon id="Path{:easeInOutCubic;0,605.41,673.9,139,62,380,1;20,601,360,139,62,360,1;40,601,360,139,62,360,1;60,605.41,673.9,139,62,380,1;}" points="338.594573 162.024404 468.114286 162.024404 368.553276 115.565714 265.701691 168.282455 235.52 219.428571"></polygon>
                <polygon id="Path{:easeInOutCubic;0,766.66,658.84,50,178,355,1;20,753,368,50,178,360,1;40,753,368,50,178,360,1;60,766.66,658.84,50,178,355,1;}" points="497.709929 128.731429 484.205714 181.466934 566.125714 424.228571"></polygon>
                <polygon id="Path{:easeInOutCubic;0,930.56,606.61,109,233,340,1;20,767,370,109,233,360,1;40,767,370,109,233,360,1;60,930.56,606.61,109,233,340,1;}" points="509.074286 134.582857 566.20994 364.879586 690.468571 519.314286 529.932285 149.937169"></polygon>
                <polygon id="Path{:easeInOutCubic;0,1404.52,418.25,56,52,300,1;20,827,373,56,52,360,1;40,827,373,56,52,360,1;60,1404.52,418.25,56,52,300,1;}" points="648.570647 147.205646 608.548571 137.508571 700.708571 225.28"></polygon>
                <polygon id="Path{:easeInOutCubic;0,412.72,364.74,72,52,340,1;20,560,375,72,52,360,1;40,560,375,72,52,360,1;60,412.72,364.74,72,52,340,1;}" points="233.951785 179.748265 286.72 141.897143 187.32587 203.659724 168.228571 229.030769 173.150867 229.668571"></polygon>
                <polygon id="Path{:easeInOutCubic;0,277.14,167.65,80,50,390,1;20,478,375,80,50,360,1;40,478,375,80,50,360,1;60,277.14,167.65,80,50,390,1;}" points="105.142118 179.080401 29.2571429 141.897143 83.6289219 193.009465 160.392597 226.742857 162.377143 208.216029"></polygon>
                <polygon id="Path{:easeInOutCubic;0,1164.27,654.05,149,197,330,1;20,783,379,149,197,360,1;40,783,379,149,197,360,1;60,1164.27,654.05,149,197,330,1;}" points="644.929646 290.236657 554.312163 160.282846 535.405714 149.211429 617.139013 331.613179 781.165714 475.428571"></polygon>
                <polygon id="Path{:easeInOutCubic;0,1076.01,554.37,163,170,325,1;20,799,386,163,170,360,1;40,799,386,163,170,360,1;60,1076.01,554.37,163,170,325,1;}" points="563.2 157.988571 689.990269 321.024289 833.828571 438.857143 594.343147 177.995223"></polygon>
                <polygon id="Path{:easeInOutCubic;0,25.08,218.54,85,33,380,1;20,463,390,85,33,360,1;40,463,390,85,33,360,1;60,25.08,218.54,85,33,380,1;}" points="4.38857143 168.228571 49.2424984 195.697653 143.36 223.817143"></polygon>
                <polygon id="Path{:easeInOutCubic;0,434.12,576.1,58,43,290,1;20,557,391,58,43,360,1;40,557,391,58,43,360,1;60,434.12,576.1,58,43,290,1;}" points="256 169.691429 236.769365 179.728381 159.451429 239.908571 227.825023 218.066929"></polygon>
                <polygon id="Path{:easeInOutCubic;0,417.63,323.39,42,34,350,1;20,558,392,42,34,360,1;40,558,392,42,34,360,1;60,417.63,323.39,42,34,350,1;}" points="229.668571 169.691429 165.895715 185.943503 160.914286 226.742857 179.167792 200.244121"></polygon>
                <polygon id="Path{:easeInOutCubic;0,360.47,114.89,35,20,370,1;20,523,392,35,20,360,1;40,523,392,35,20,360,1;60,360.47,114.89,35,20,370,1;}" points="105.325714 169.691429 162.568978 204.8 163.84 185.21853"></polygon>
                <polygon id="Path{:easeInOutCubic;0,95.76,360.62,72,23,380,1;20,460,400,72,23,360,1;40,460,400,72,23,360,1;60,95.76,360.62,72,23,380,1;}" points="0 184.32 102.951766 223.817143 118.491429 218.372754"></polygon>
                <polygon id="Path{:easeInOutCubic;0,1274.59,627.91,149,135,370,1;20,823,403,149,135,360,1;40,823,403,149,135,360,1;60,1274.59,627.91,149,135,370,1;}" points="649.596684 221.518833 602.697143 188.708571 762.990617 352.567724 848.457143 412.525714"></polygon>
                <polygon id="Path{:easeInOutCubic;0,18.4,354.76,50,11,390,1;20,470,415,50,11,360,1;40,470,415,50,11,360,1;60,18.4,354.76,50,11,390,1;}" points="98.0114286 221.63167 67.4553592 210.886426 16.0914286 207.725714 85.7853747 225.28"></polygon>
                <polygon id="Path{:easeInOutCubic;0,4,445,83,21,360,1;20,480,421,83,21,360,1;40,480,421,83,21,360,1;60,4,445,83,21,360,1;}" points="171.154286 231.828273 123.882303 219.428571 35.1085714 253.193914 134.526365 256"></polygon>
                <polygon id="Path{:easeInOutCubic;0,443.91,810.52,68,51,350,1;20,538,421,68,51,360,1;40,538,421,68,51,360,1;60,443.91,810.52,68,51,350,1;}" points="216.04379 228.378776 130.194286 305.737143 244.297143 219.428571"></polygon>
                <polygon id="Path{:easeInOutCubic;0,1216.42,522.35,115,84,350,1;20,859,427,115,84,360,1;40,859,427,115,84,360,1;60,1216.42,522.35,115,84,350,1;}" points="662.674286 228.205714 729.400579 289.42711 852.845714 367.177143 739.414001 276.374711"></polygon>
                <polygon id="Path{:easeInOutCubic;0,183.22,736.38,100,80,335,1;20,486,427,100,80,360,1;40,486,427,100,80,360,1;60,183.22,736.38,100,80,335,1;}" points="213.577143 228.205714 164.767603 244.443244 45.3485714 362.788571 130.511394 298.669436"></polygon>
                <polygon id="Path{:easeInOutCubic;0,93.3,639.11,78,74,340,1;20,477,436,78,74,360,1;40,477,436,78,74,360,1;60,93.3,639.11,78,74,340,1;}" points="74.2436055 296.298053 27.7942857 365.714286 157.988571 242.834286"></polygon>
                <polygon id="Path{:easeInOutCubic;0,6.32,530.66,40,20,330,1;20,482,444,40,20,360,1;40,482,444,40,20,360,1;60,6.32,530.66,40,20,330,1;}" points="82.1278405 277.33897 103.862857 256.684568 91.4453686 256 38.0342857 291.108571"></polygon>
                <polygon id="Path{:easeInOutCubic;0,67.33,549.35,55,35,340,1;20,482,444,55,35,360,1;40,482,444,55,35,360,1;60,67.33,549.35,55,35,340,1;}" points="128.731429 256 109.474098 256 38.0342857 313.051429"></polygon>
            </g>
        </g>
    </g>
</svg>